HIERARCHY
ROOT joint_Root
{
	OFFSET 0.0 0.0 0.0
	CHANNELS 6 Xposition Yposition Zposition Zrotation Xrotation Yrotation 
	JOINT Hips
	{
		OFFSET -17.1583 93.1646 452.98
		CHANNELS 6 Xposition Yposition Zposition Zrotation Xrotation Yrotation 
		JOINT Spine
		{
			OFFSET 15.7357 0.0 0.0
			CHANNELS 6 Xposition Yposition Zposition Zrotation Xrotation Yrotation 
			JOINT Chest
			{
				OFFSET 8.98455 -0.406207 0.0
				CHANNELS 6 Xposition Yposition Zposition Zrotation Xrotation Yrotation 
				JOINT Neck
				{
					OFFSET 16.3773 0.0 0.0
					CHANNELS 6 Xposition Yposition Zposition Zrotation Xrotation Yrotation 
					JOINT Head
					{
						OFFSET 6.45672 0.0 0.0
						CHANNELS 6 Xposition Yposition Zposition Zrotation Xrotation Yrotation 
						End Site
						{
							OFFSET 0.0 0.0 0.0
						}
					}
				}
				JOINT Shoulder_L
				{
					OFFSET 12.9942 -0.242716 4.98039
					CHANNELS 6 Xposition Yposition Zposition Zrotation Xrotation Yrotation 
					JOINT UpperArm_L
					{
						OFFSET 5.34809 0.0 0.0
						CHANNELS 6 Xposition Yposition Zposition Zrotation Xrotation Yrotation 
						JOINT LowerArm_L
						{
							OFFSET 24.3286 1.87007e-05 0.0
							CHANNELS 6 Xposition Yposition Zposition Zrotation Xrotation Yrotation 
							JOINT Hand_L
							{
								OFFSET 22.2916 0.0 0.0
								CHANNELS 6 Xposition Yposition Zposition Zrotation Xrotation Yrotation 
								End Site
								{
									OFFSET 0.0 0.0 0.0
								}
							}
						}
					}
				}
				JOINT Shoulder_R
				{
					OFFSET 12.9945 -0.242716 -4.98039
					CHANNELS 6 Xposition Yposition Zposition Zrotation Xrotation Yrotation 
					JOINT UpperArm_R
					{
						OFFSET -5.34813 0.0 0.0
						CHANNELS 6 Xposition Yposition Zposition Zrotation Xrotation Yrotation 
						JOINT LowerArm_R
						{
							OFFSET -24.3289 0.000322201 0.0
							CHANNELS 6 Xposition Yposition Zposition Zrotation Xrotation Yrotation 
							JOINT Hand_R
							{
								OFFSET -22.2915 -0.000108084 0.0
								CHANNELS 6 Xposition Yposition Zposition Zrotation Xrotation Yrotation 
								End Site
								{
									OFFSET 0.0 0.0 0.0
								}
							}
						}
					}
				}
			}
		}
		JOINT UpperLeg_L
		{
			OFFSET -2.19248 -6.46944 0.0
			CHANNELS 6 Xposition Yposition Zposition Zrotation Xrotation Yrotation 
			JOINT LowerLeg_L
			{
				OFFSET 39.0811 0.0 -1.23785e-05
				CHANNELS 6 Xposition Yposition Zposition Zrotation Xrotation Yrotation 
				JOINT Foot_L
				{
					OFFSET 40.9854 0.0 -1.26872e-05
					CHANNELS 6 Xposition Yposition Zposition Zrotation Xrotation Yrotation 
					JOINT Toes_L
					{
						OFFSET 11.7543 0.0 0.0
						CHANNELS 6 Xposition Yposition Zposition Zrotation Xrotation Yrotation 
						End Site
						{
							OFFSET 0.0 0.0 0.0
						}
					}
				}
			}
		}
		JOINT UpperLeg_R
		{
			OFFSET -2.19251 6.46944 0.0
			CHANNELS 6 Xposition Yposition Zposition Zrotation Xrotation Yrotation 
			JOINT LowerLeg_R
			{
				OFFSET -39.0811 -0.00228153 -0.0401928
				CHANNELS 6 Xposition Yposition Zposition Zrotation Xrotation Yrotation 
				JOINT Foot_R
				{
					OFFSET -40.9854 0.0 0.0
					CHANNELS 6 Xposition Yposition Zposition Zrotation Xrotation Yrotation 
					JOINT Toes_R
					{
						OFFSET -11.7543 0.0 0.0
						CHANNELS 6 Xposition Yposition Zposition Zrotation Xrotation Yrotation 
						End Site
						{
							OFFSET 0.0 0.0 0.0
						}
					}
				}
			}
		}
	}
}
MOTION
Frames:	8
Frame Time:	0.0333333
0.000000 0.000000 0.000000 0.000000 0.000000 -0.000000 -2.837810 93.157500 0.734685 86.547100 2.603720 0.996207 15.735700 0.000005 -0.000001 79.439300 86.937800 -86.321200 8.984550 -0.406207 -0.000000 -1.741260 -0.552972 -13.768700 16.377300 -0.000001 -0.000001 -0.064874 -2.099040 -8.814610 6.456720 -0.000001 -0.000000 -4.811200 0.253999 -16.330000 12.994200 -0.242716 4.980390 -92.928000 9.806430 -73.284800 5.348090 -0.000007 -0.000001 -54.122100 -4.227940 1.037130 24.328600 0.000019 0.000005 10.371100 23.887600 -24.320300 22.291600 -0.000001 0.000005 4.061360 4.904490 9.288100 12.994500 -0.242716 -4.980390 93.389900 -6.142550 -61.032000 -5.348130 -0.000001 -0.000004 -31.215800 -60.012900 -63.640700 -24.328900 0.000322 -0.000009 -0.001033 -9.401780 -0.000055 -22.291500 -0.000108 -0.000004 54.304300 5.542520 -8.357870 -2.192480 -6.469440 -0.000000 -170.193000 -2.019380 -0.021312 39.081100 -0.000007 -0.000012 -0.002587 0.010512 13.822400 40.985400 -0.000006 -0.000013 -2.969040 12.227400 -68.621700 11.754300 -0.000000 0.000003 -0.001096 0.184397 -9.096660 -2.192510 6.469440 -0.000001 179.238000 11.481500 -176.811000 -39.081100 -0.002282 -0.040193 -0.007004 0.064061 9.172580 -40.985400 0.000008 0.000006 -8.084680 9.482950 -65.142800 -11.754300 -0.000006 -0.000006 -0.008350 0.258529 -6.073210
0.000000 0.000000 0.000000 0.000000 0.000000 -0.000000 -2.816280 93.142300 0.713361 86.523800 2.599730 1.122230 15.735700 0.000005 -0.000001 79.313400 86.889200 -86.148000 8.984550 -0.406207 -0.000000 -1.650890 -0.593504 -13.674000 16.377300 -0.000001 -0.000001 0.051898 -2.097650 -8.773290 6.456720 -0.000001 -0.000000 -4.821370 0.288455 -16.316500 12.994200 -0.242716 4.980390 -92.936300 9.840230 -73.293900 5.348090 -0.000007 -0.000001 -54.304500 -4.111990 1.065430 24.328600 0.000019 0.000005 10.306200 23.808200 -24.249800 22.291600 -0.000001 0.000005 4.122440 4.899670 9.384350 12.994500 -0.242716 -4.980390 93.385900 -6.131260 -61.016400 -5.348130 -0.000001 -0.000004 -31.501400 -60.061900 -63.800700 -24.328900 0.000322 -0.000009 -0.001043 -9.513420 -0.000056 -22.291500 -0.000108 -0.000004 54.139200 5.538390 -8.170060 -2.192480 -6.469440 -0.000000 -170.179000 -2.031090 -0.053092 39.081100 -0.000007 -0.000012 -0.002922 0.011648 14.079700 40.985400 -0.000006 -0.000013 -2.928880 12.242200 -68.672600 11.754300 -0.000000 0.000003 -0.001084 0.184218 -9.103940 -2.192510 6.469440 -0.000001 179.244000 11.470100 -176.801000 -39.081100 -0.002282 -0.040193 -0.007237 0.064053 9.376830 -40.985400 0.000008 0.000006 -7.926730 9.443630 -65.248600 -11.754300 -0.000006 -0.000006 -0.008296 0.258095 -6.090940
0.000000 0.000000 0.000000 0.000000 0.000000 -0.000000 -2.784130 93.141100 0.695636 86.564800 2.544890 1.254230 15.735700 0.000005 -0.000001 79.275100 86.835500 -86.081200 8.984550 -0.406207 -0.000000 -1.548260 -0.625999 -13.616700 16.377300 -0.000001 -0.000001 0.171122 -2.038560 -8.850960 6.456720 -0.000001 -0.000000 -4.845440 0.367215 -16.246300 12.994200 -0.242716 4.980390 -92.936600 9.837450 -73.287900 5.348090 -0.000007 -0.000001 -54.614400 -4.178960 1.069120 24.328600 0.000019 0.000005 10.345600 23.888000 -24.265900 22.291600 -0.000001 0.000005 4.152480 4.898350 9.410620 12.994500 -0.242716 -4.980390 93.389200 -6.141370 -61.032000 -5.348130 -0.000001 -0.000004 -31.576500 -60.079200 -63.764500 -24.328900 0.000322 -0.000009 -0.001036 -9.450030 -0.000055 -22.291500 -0.000108 -0.000004 54.065700 5.536800 -8.098980 -2.192480 -6.469440 -0.000000 -170.243000 -1.999050 0.083448 39.081100 -0.000007 -0.000012 -0.002230 0.008890 14.077300 40.985400 -0.000006 -0.000013 -2.910750 12.200000 -68.657300 11.754300 -0.000000 0.000003 -0.001132 0.184894 -9.076450 -2.192510 6.469440 -0.000001 179.166000 11.404700 -176.742000 -39.081100 -0.002282 -0.040193 -0.007339 0.063820 9.498690 -40.985400 0.000008 0.000006 -7.913640 9.414290 -65.309800 -11.754300 -0.000006 -0.000006 -0.008263 0.257832 -6.101720
0.000000 0.000000 0.000000 0.000000 0.000000 -0.000000 -2.757660 93.131700 0.672117 86.564600 2.454330 1.380550 15.735700 0.000005 -0.000001 79.290000 86.795300 -86.053800 8.984550 -0.406207 -0.000000 -1.470450 -0.647323 -13.531500 16.377300 -0.000001 -0.000001 0.295568 -1.985270 -8.920540 6.456720 -0.000001 -0.000000 -4.864410 0.467597 -16.259600 12.994200 -0.242716 4.980390 -92.945100 9.859590 -73.277200 5.348090 -0.000007 -0.000001 -54.866700 -3.925640 1.186260 24.328600 0.000019 0.000005 10.387200 23.761000 -24.462400 22.291600 -0.000001 0.000005 4.166370 4.902250 9.332920 12.994500 -0.242716 -4.980390 93.392900 -6.131340 -60.966300 -5.348130 -0.000001 -0.000004 -31.900800 -60.055200 -64.073000 -24.328900 0.000322 -0.000009 -0.001031 -9.316250 -0.000055 -22.291500 -0.000108 -0.000004 53.817900 5.533200 -7.937520 -2.192480 -6.469440 -0.000000 -170.271000 -1.999710 0.142514 39.081100 -0.000007 -0.000012 -0.001011 0.003985 14.229800 40.985400 -0.000006 -0.000013 -2.880770 12.120600 -68.720900 11.754300 -0.000000 0.000003 -0.001148 0.185120 -9.067250 -2.192510 6.469440 -0.000001 179.137000 11.275300 -176.723000 -39.081100 -0.002282 -0.040193 -0.007459 0.063334 9.675360 -40.985400 0.000008 0.000006 -7.836640 9.381140 -65.416500 -11.754300 -0.000006 -0.000006 -0.008430 0.259178 -6.046700
0.000000 0.000000 0.000000 0.000000 0.000000 -0.000000 -2.731920 93.128900 0.655504 86.551300 2.382620 1.411360 15.735700 0.000005 -0.000001 79.115600 86.782800 -85.839100 8.984550 -0.406207 -0.000000 -1.451500 -0.675513 -13.451400 16.377300 -0.000001 -0.000001 0.371265 -1.964780 -8.909940 6.456720 -0.000001 -0.000000 -4.854630 0.522788 -16.330100 12.994200 -0.242716 4.980390 -92.959100 9.904580 -73.273500 5.348090 -0.000007 -0.000001 -55.110900 -3.860310 1.191080 24.328600 0.000019 0.000005 10.387100 23.695300 -24.518600 22.291600 -0.000001 0.000005 4.043620 4.909410 9.189450 12.994500 -0.242716 -4.980390 93.390800 -6.133310 -60.988700 -5.348130 -0.000001 -0.000004 -31.941400 -60.065600 -64.029500 -24.328900 0.000322 -0.000009 -0.001049 -9.347310 -0.000055 -22.291500 -0.000108 -0.000004 53.641000 5.533300 -7.940750 -2.192480 -6.469440 -0.000000 -170.263000 -2.103650 0.151698 39.081100 -0.000007 -0.000012 -0.000911 0.003576 14.281000 40.985400 -0.000006 -0.000013 -2.852620 12.172600 -68.675500 11.754300 -0.000000 0.000003 -0.000894 0.181522 -9.213500 -2.192510 6.469440 -0.000001 179.136000 11.188200 -176.739000 -39.081100 -0.002282 -0.040193 -0.007431 0.062822 9.728580 -40.985400 0.000008 0.000006 -7.874250 9.374770 -65.405600 -11.754300 -0.000006 -0.000006 -0.008414 0.259044 -6.052170
0.000000 0.000000 0.000000 0.000000 0.000000 -0.000000 -2.709020 93.131000 0.639470 86.567400 2.262420 1.468990 15.735700 0.000005 -0.000001 79.163200 86.778000 -85.861400 8.984550 -0.406207 -0.000000 -1.441110 -0.674702 -13.400600 16.377300 -0.000001 -0.000001 0.430370 -1.959140 -8.868320 6.456720 -0.000001 -0.000000 -4.802780 0.539972 -16.343900 12.994200 -0.242716 4.980390 -92.988500 9.972040 -73.223100 5.348090 -0.000007 -0.000001 -55.310100 -3.592360 1.282160 24.328600 0.000019 0.000005 10.421600 23.535400 -24.730600 22.291600 -0.000001 0.000005 4.058780 4.907860 9.220290 12.994500 -0.242716 -4.980390 93.369000 -6.093720 -60.989700 -5.348130 -0.000001 -0.000004 -31.852300 -59.987700 -63.950600 -24.328900 0.000322 -0.000009 -0.001037 -9.444290 -0.000055 -22.291500 -0.000108 -0.000004 53.443600 5.530320 -7.809500 -2.192480 -6.469440 -0.000000 -170.300000 -2.110280 0.250009 39.081100 -0.000007 -0.000012 -0.000542 0.002133 14.254300 40.985400 -0.000006 -0.000013 -2.853940 12.062300 -68.690400 11.754300 -0.000000 0.000003 -0.000972 0.182638 -9.168120 -2.192510 6.469440 -0.000001 179.076000 11.126100 -176.699000 -39.081100 -0.002282 -0.040193 -0.007527 0.063228 9.751130 -40.985400 0.000008 0.000006 -7.959630 9.478290 -65.400200 -11.754300 -0.000006 -0.000006 -0.008427 0.259150 -6.047840
0.000000 0.000000 0.000000 0.000000 0.000000 -0.000000 -2.701230 93.115100 0.638832 86.523800 2.164950 1.531910 15.735700 0.000005 -0.000001 79.400700 86.755800 -86.065100 8.984550 -0.406207 -0.000000 -1.391810 -0.662229 -13.332400 16.377300 -0.000001 -0.000001 0.497536 -2.004360 -8.770260 6.456720 -0.000001 -0.000000 -4.827410 0.496567 -16.275900 12.994200 -0.242716 4.980390 -93.004200 10.009000 -73.197900 5.348090 -0.000007 -0.000001 -55.556600 -3.594930 1.178280 24.328600 0.000019 0.000005 10.431200 23.586500 -24.706500 22.291600 -0.000001 0.000005 3.939550 4.910160 9.174670 12.994500 -0.242716 -4.980390 93.322100 -6.019120 -61.032500 -5.348130 -0.000001 -0.000004 -31.624200 -59.993700 -63.671800 -24.328900 0.000322 -0.000009 -0.001042 -9.507980 -0.000056 -22.291500 -0.000108 -0.000004 53.315800 5.530270 -7.807410 -2.192480 -6.469440 -0.000000 -170.259000 -2.158920 0.206595 39.081100 -0.000007 -0.000012 -0.001805 0.006987 14.478800 40.985400 -0.000006 -0.000013 -2.832840 12.021500 -68.744600 11.754300 -0.000000 0.000003 -0.000959 0.182445 -9.176000 -2.192510 6.469440 -0.000001 179.121000 11.110100 -176.732000 -39.081100 -0.002282 -0.040193 -0.007505 0.062046 9.913330 -40.985400 0.000008 0.000006 -7.711330 9.522190 -65.502300 -11.754300 -0.000006 -0.000006 -0.008195 0.257287 -6.123960
0.000000 0.000000 0.000000 0.000000 0.000000 -0.000000 -2.692090 93.123500 0.637628 86.546800 2.073690 1.555380 15.735700 0.000005 -0.000001 79.259500 86.753700 -85.911700 8.984550 -0.406207 -0.000000 -1.391890 -0.679642 -13.308300 16.377300 -0.000001 -0.000001 0.617081 -2.047240 -8.607990 6.456720 -0.000001 -0.000000 -4.865070 0.520846 -16.251200 12.994200 -0.242716 4.980390 -93.025900 10.058000 -73.159900 5.348090 -0.000007 -0.000001 -55.763900 -3.491880 1.161170 24.328600 0.000019 0.000005 10.404400 23.498400 -24.726100 22.291600 -0.000001 0.000005 4.014360 4.914260 9.092200 12.994500 -0.242716 -4.980390 93.296300 -5.972630 -61.034700 -5.348130 -0.000001 -0.000004 -31.642400 -59.885700 -63.596400 -24.328900 0.000322 -0.000009 -0.001040 -9.491130 -0.000056 -22.291500 -0.000108 -0.000004 53.222900 5.528500 -7.729840 -2.192480 -6.469440 -0.000000 -170.296000 -2.153200 0.319073 39.081100 -0.000007 -0.000012 -0.001516 0.005919 14.359000 40.985400 -0.000006 -0.000013 -2.840440 11.959000 -68.737400 11.754300 -0.000000 0.000003 -0.001054 0.183796 -9.121050 -2.192510 6.469440 -0.000001 179.071000 11.118400 -176.689000 -39.081100 -0.002282 -0.040193 -0.007614 0.062977 9.866070 -40.985400 0.000008 0.000006 -7.781500 9.580700 -65.480000 -11.754300 -0.000006 -0.000006 -0.008654 0.260958 -5.973970
